<svg xmlns="http://www.w3.org/2000/svg" width="512" height="512" viewBox="0 0 512 512"><defs><linearGradient id="bgg" x1="14.644660940672622%" y1="14.644660940672622%" x2="85.35533905932738%" y2="85.35533905932738%"><stop offset="0" stop-color="#1f2937"/><stop offset="1" stop-color="#64748b"/></linearGradient></defs><rect width="512" height="512" fill="url(#bgg)"/><g transform="translate(256 256) rotate(0)"><g transform="translate(-153.6 -153.6) scale(9.6)"><path fill="#ffffff" d="m12.5 7.5l-1.4-1.4l3.5-3.5c.8-.8 2.1-.8 2.8 0l3.5 3.5l-1.4 1.4L16 4zm7 17l1.4 1.4l-3.5 3.5c-.8.8-2.1.8-2.8 0l-3.5-3.5l1.4-1.4L16 28zm5-12l1.4-1.4l3.5 3.5c.8.8.8 2.1 0 2.8l-3.5 3.5l-1.4-1.4L28 16zm-17 7l-1.4 1.4l-3.5-3.5c-.8-.8-.8-2.1 0-2.8l3.5-3.5l1.4 1.4L4 16z"/><path fill="#ffffff" d="M26 24c-.2 0-.3 0-.5.1L19.4 18c.8-1.2.8-2.8 0-4l6.1-6.1c.2.1.3.1.5.1c1.1 0 2-.9 2-2s-.9-2-2-2s-2 .9-2 2c0 .2 0 .3.1.5L18 12.6c-1.2-.8-2.8-.8-4 0L7.9 6.5c.1-.2.1-.3.1-.5c0-1.1-.9-2-2-2s-2 .9-2 2s.9 2 2 2c.2 0 .3 0 .5-.1l6.1 6.1c-.8 1.2-.8 2.8 0 4l-6.1 6.1c-.2-.1-.3-.1-.5-.1c-1.1 0-2 .9-2 2s.9 2 2 2s2-.9 2-2c0-.2 0-.3-.1-.5l6.1-6.1c1.2.8 2.8.8 4 0l6.1 6.1c0 .2-.1.3-.1.5c0 1.1.9 2 2 2s2-.9 2-2s-.9-2-2-2m-10-6c-1.1 0-2-.9-2-2s.9-2 2-2s2 .9 2 2s-.9 2-2 2"/></g></g></svg>