<svg width="512" height="512" viewBox="0 0 512 512" fill="none" xmlns="http://www.w3.org/2000/svg">
<g clip-path="url(#clip0_143_2)">
<path d="M256 236.8C266.56 236.8 275.2 245.44 275.2 256C275.2 266.56 266.56 275.2 256 275.2C245.44 275.2 236.8 266.56 236.8 256C236.8 245.44 245.44 236.8 256 236.8Z" fill="#1F2937"/>
<path fill-rule="evenodd" clip-rule="evenodd" d="M256 0C397.385 0 512 114.615 512 256C512 397.385 397.385 512 256 512C114.615 512 0 397.385 0 256C0 114.615 114.615 0 256 0ZM256 371.2L222.4 337.6L208.96 351.04L242.56 384.64C249.28 392.32 261.76 392.32 269.44 384.64L303.04 351.04L289.6 337.6L256 371.2ZM352 140.8C341.44 140.8 332.8 149.44 332.8 160C332.8 161.92 332.8 162.88 333.76 164.8L275.2 223.36C263.68 215.68 248.32 215.68 236.8 223.36L178.24 164.8C179.2 162.88 179.2 161.92 179.2 160C179.2 149.44 170.56 140.8 160 140.8C149.44 140.8 140.8 149.44 140.8 160C140.8 170.56 149.44 179.2 160 179.2C161.92 179.2 162.88 179.2 164.8 178.24L223.36 236.8C215.68 248.32 215.68 263.68 223.36 275.2L164.8 333.76C162.88 332.8 161.92 332.8 160 332.8C149.44 332.8 140.8 341.44 140.8 352C140.8 362.56 149.44 371.2 160 371.2C170.56 371.2 179.2 362.56 179.2 352C179.2 350.08 179.2 349.12 178.24 347.2L236.8 288.64C248.32 296.32 263.68 296.32 275.2 288.64L333.76 347.2C333.76 349.12 332.8 350.08 332.8 352C332.8 362.56 341.44 371.2 352 371.2C362.56 371.2 371.2 362.56 371.2 352C371.2 341.44 362.56 332.8 352 332.8C350.08 332.8 349.12 332.8 347.2 333.76L288.64 275.2C296.32 263.68 296.32 248.32 288.64 236.8L347.2 178.24C349.12 179.2 350.08 179.2 352 179.2C362.56 179.2 371.2 170.56 371.2 160C371.2 149.44 362.56 140.8 352 140.8ZM127.36 242.561C119.68 249.281 119.68 261.76 127.36 269.44L160.96 303.04L174.4 289.6L140.8 256L174.4 222.4L160.96 208.96L127.36 242.561ZM337.6 222.4L371.2 256L337.6 289.6L351.04 303.04L384.64 269.44C392.32 262.72 392.32 250.241 384.64 242.561L351.04 208.96L337.6 222.4ZM269.44 127.36C262.72 119.68 250.24 119.68 242.56 127.36L208.96 160.96L222.4 174.4L256 140.8L289.6 174.4L303.04 160.96L269.44 127.36Z" fill="#1F2937"/>
</g>
<defs>
<clipPath id="clip0_143_2">
<rect width="512" height="512" fill="white"/>
</clipPath>
</defs>
</svg>
